# xmcd
#
# Track frame offsets: 
#        150
#        13225
#        25032
#        37400
#        49722
#        61002
#        72360
#        85325
#        97872
#        110345
#        122332
#        134102
#        146480
#        158645
#        170565
#        181650
#        194622
#        206000
#        219182
#        230962
#        243877
#        255595
#        267137
#        279232
#        292005
#        303550
#        315740
#        328650
#        340722
#
# Disc length: 4711 seconds
#
# Revision: 3
# Processed by: cddbd v1.5.2PL0 Copyright (c) Steve Scherf et al.
# Submitted via: ExactAudioCopy v1.1
#
DISCID=a912651d
DTITLE=Bob Wills and His Texas Playboys - San Antonio Rose - Disc 5
DYEAR=2000
DGENRE=Country
TTITLE0=You Don't Love Me (But I'll Always Care) (mono)
TTITLE1=No Wonder (mono)
TTITLE2=Lone Star Rag (mono)
TTITLE3=There's Going To Be A Party (For The Old Folks) (mono)
TTITLE4=I Don't Lov'a Nobody (mono)
TTITLE5=That Brownskin Gal (mono)
TTITLE6=Corrine Corrina (mono)
TTITLE7=Let Me Call You Sweetheart (mono)
TTITLE8=Blue Bonnet Rag (mono)
TTITLE9=Time Changes Everything (mono)
TTITLE10=Medley Of Spanish Waltzes (La Golondrina, Lady Of Spain, Ciel
TTITLE10=ito Lindo) (mono)
TTITLE11=Bob Wills Special (mono)
TTITLE12=Big Beaver (mono)
TTITLE13=New San Antonio Rose (1940) (mono)
TTITLE14=Wait 'Til You See (mono)
TTITLE15=Liebestraum (mono)
TTITLE16=Lyla Lou (mono)
TTITLE17=New Worried Mind (mono)
TTITLE18=La Paloma (mono)
TTITLE19=Maiden's Prayer (1941) (mono)
TTITLE20=Oh! You Pretty Woman (mono)
TTITLE21=I Found A Dream (mono)
TTITLE22=The Girl I Left Behind Me (mono)
TTITLE23=I Knew The Moment I Lost You (mono)
TTITLE24=Done And Gone (mono)
TTITLE25=Twin Guitar Special (mono)
TTITLE26=Mississippi Delta Blues (1941) (mono)
TTITLE27=Take Me Back To Tulsa (mono)
TTITLE28=Takin' It Home (mono)
EXTD=
EXTT0=
EXTT1=
EXTT2=
EXTT3=
EXTT4=
EXTT5=
EXTT6=
EXTT7=
EXTT8=
EXTT9=
EXTT10=
EXTT11=
EXTT12=
EXTT13=
EXTT14=
EXTT15=
EXTT16=
EXTT17=
EXTT18=
EXTT19=
EXTT20=
EXTT21=
EXTT22=
EXTT23=
EXTT24=
EXTT25=
EXTT26=
EXTT27=
EXTT28=
PLAYORDER=
